<?xml version="1.0" encoding="utf-8"?>
<!-- Generator: Adobe Illustrator 26.0.3, SVG Export Plug-In . SVG Version: 6.00 Build 0)  -->
<svg version="1.2" baseProfile="tiny" id="Ebene_1" xmlns="http://www.w3.org/2000/svg" xmlns:xlink="http://www.w3.org/1999/xlink"
	 x="0px" y="0px" viewBox="0 0 327.11 157.7" overflow="visible" xml:space="preserve">
<path d="M98.58,120.75c-1.59,3.32-3.43,5.92-5.5,7.78c-3.81,3.46-8.75,5.19-14.84,5.19c-5.74,0-10.65-1.42-14.74-4.26
	c-6.71-4.56-10.27-12.52-10.69-23.86h70.04v3.42c0,4.26,0.19,8.15,0.55,11.73H98.58z M60.65,68.66c3.77-4.29,9.08-6.43,15.93-6.43
	c6.3,0,11.57,2.02,15.83,6.07c4.25,4.05,6.62,9.98,7.11,17.8H53.54C54.51,78.76,56.88,72.95,60.65,68.66 M194.98,102.39
	c0,7.26-0.97,13.11-2.91,17.53c-3.74,8.16-10.66,12.25-20.76,12.25c-7.89,0-13.18-2.87-15.88-8.61c-1.52-3.25-2.28-8.1-2.28-14.53
	V40.84h-30.3V63.5c-0.68-1.25-1.4-2.48-2.18-3.66c-4.91-7.61-11.14-13.18-18.68-16.71c-7.54-3.53-16.01-5.29-25.43-5.29
	c-15.84,0-28.73,5.23-38.66,15.67c-3.37,3.55-6.12,7.66-8.35,12.27V1H0v152.96h29.57v-22.88c2.57,5.03,5.88,9.28,9.96,12.72
	c11,9.27,23.69,13.91,38.08,13.91c17.43,0,30.99-5.5,40.68-16.5c2.94-3.26,5.24-6.5,6.96-9.71c0.69,2.58,1.5,4.9,2.48,6.91
	c5.81,12.04,17.09,18.05,33.83,18.05c5.81,0,10.88-0.76,15.2-2.28c4.32-1.52,8.81-4.36,13.44-8.51c1.52-1.31,2.83-2.84,3.94-4.57
	c1.1-1.73,1.8-2.77,2.07-3.11v15.98h28.74V40.84h-29.99V102.39z"/>
<polygon points="239.79,100.02 239.56,99.79 265.02,110.04 308.49,83.13 308.49,68.3 285.24,46.62 327.11,46.62 327.11,56.95 
	319,67.64 319,83.52 327.11,91.54 327.11,112.41 313.01,96.7 265,118.04 "/>
<polygon points="274.8,133.02 317.03,133.02 292.68,155.64 "/>
<polygon points="290.13,0 313.32,0 313.32,23.69 "/>
<polygon points="255.05,0 208.85,0 265.96,27.44 "/>
</svg>
